<svg version="1.1" viewBox="0.0 0.0 495.91076115485566 186.38057742782152" fill="none" stroke="none" stroke-linecap="square" stroke-miterlimit="10" xmlns:xlink="http://www.w3.org/1999/xlink" xmlns="http://www.w3.org/2000/svg"><clipPath id="p.0"><path d="m0 0l495.91077 0l0 186.38058l-495.91077 0l0 -186.38058z" clip-rule="nonzero"/></clipPath><g clip-path="url(#p.0)"><path fill="#000000" fill-opacity="0.0" d="m0 0l495.91077 0l0 186.38058l-495.91077 0z" fill-rule="evenodd"/><path fill="#000000" fill-opacity="0.0" d="m0 0l480.0 0l0 185.07086l-480.0 0z" fill-rule="evenodd"/><path fill="#000000" d="m133.99323 131.88l-18.125 0l-11.4375 -30.125q-2.1875 -5.625 -5.0625 -15.0q-2.4375 8.0 -4.9375 14.6875l-11.375 30.4375l-18.0 0l25.5 -66.3125l-9.6875 -25.3125l17.3125 0l9.9375 25.3125l25.875 66.3125z" fill-rule="nonzero"/><path fill="#000000" d="m160.07135 131.88l0 -2.78125l0 -0.125q0 -0.828125 0.125 -3.21875q0.140625 -2.40625 0.265625 -4.96875q0.125 -2.5625 0.25 -4.578125q0.125 -2.015625 0.125 -3.984375q-2.890625 -1.21875 -5.265625 -1.4375q-2.375 -0.21875 -4.953125 -0.21875q-2.5625 0 -5.1875 0.296875q-2.625 0.28125 -5.90625 1.59375q0 2.640625 -0.0625 4.546875q-0.0625 1.90625 -0.125 4.125q-0.0625 2.203125 0 4.53125q0.0625 2.3125 0.78125 6.09375l2.5625 0l14.46875 0.125l2.921875 0z" fill-rule="nonzero"/><path fill="#cccccc" d="m223.62273 71.20813q2.375 -12.671875 -1.375 -19.71875q-3.734375 -7.046875 -10.671875 -10.671875q-3.359375 -1.53125 -7.25 -2.484375q-3.890625 -0.96875 -7.90625 -1.171875q-4.015625 -0.203125 -8.03125 0.28125q-4.015625 0.484375 -7.421875 1.90625q-6.75 2.8125 -11.4375 8.546875q-4.6875 5.734375 -6.375 12.765625q-1.6875 7.015625 0.203125 14.484375q1.90625 7.46875 8.40625 13.671875q2.078125 1.78125 4.546875 3.09375q2.46875 1.3125 5.421875 1.90625q2.703125 0.515625 5.625 1.0625q2.9375 0.546875 5.203125 1.546875q2.265625 0.984375 3.671875 2.359375q1.421875 1.359375 1.703125 3.5625q0.515625 3.0625 -1.0625 4.4375q-1.5625 1.359375 -4.046875 1.421875q-2.484375 0.046875 -4.609375 -1.390625q-2.109375 -1.453125 -2.4375 -6.828125q-6.8125 0.203125 -12.265625 -0.125q-5.453125 -0.328125 -12.484375 0.6875l0 2.6875l0 0.3125q-0.421875 6.8125 2.4375 12.203125q2.875 5.375 7.625 9.015625q4.765625 3.625 10.734375 5.625q5.984375 1.984375 12.0 2.125q4.296875 0.140625 8.40625 -0.765625q4.125 -0.90625 7.75 -2.90625q3.640625 -2.0 6.5 -5.15625q2.875 -3.15625 4.578125 -7.515625q1.625 -3.546875 2.390625 -7.5q0.765625 -3.96875 0.5625 -7.890625q-0.203125 -3.9375 -1.5 -7.71875q-1.28125 -3.78125 -3.796875 -7.0q-4.0 -5.921875 -10.3125 -9.796875q-6.3125 -3.890625 -13.671875 -4.734375q-2.28125 -0.3125 -3.875 -1.015625q-1.59375 -0.71875 -2.171875 -2.453125q-0.078125 -0.5625 -0.125 -1.125q-0.03125 -0.5625 0.140625 -1.171875q0.328125 -2.296875 2.140625 -3.09375q1.8125 -0.8125 4.0625 -0.34375q2.25 0.46875 3.65625 1.953125q1.40625 1.484375 0.390625 6.0q7.296875 2.09375 12.71875 1.890625q5.421875 -0.21875 9.75 -2.15625l2.203125 1.1875z" fill-rule="nonzero"/><path fill="#3c78d8" d="m254.40587 38.692505q-4.90625 0.5625 -6.953125 0.453125q-2.046875 -0.125 -4.21875 -0.3125q-2.15625 -0.203125 -4.296875 -0.328125q-2.140625 -0.140625 -6.109375 0.453125q-0.5 4.59375 -0.5625 7.734375q-0.0625 3.140625 -0.0625 6.515625q0 3.359375 0.125 6.625q0.125 3.265625 0.734375 3.984375q0 -0.609375 -2.203125 -0.609375q-2.203125 0 -7.421875 -0.25l-0.515625 21.046875q5.40625 0 7.6875 0q2.28125 0 2.328125 -0.765625q-0.859375 7.34375 -0.609375 16.234375q0.265625 8.890625 2.015625 19.234375q2.125 5.046875 6.4375 7.6875q4.328125 2.625 9.5 3.859375q5.171875 1.21875 10.85939 1.546875q5.703125 0.328125 12.78125 -0.015625q1.328125 -3.953125 1.53125 -6.5q0.203125 -2.5625 0.0625 -5.0q-0.125 -2.4375 -0.390625 -4.65625q-0.25 -2.234375 -0.84375 -6.484375q-4.5 0.265625 -7.203125 0.15625q-2.703125 -0.125 -5.296875 -0.65625q-2.578125 -0.53125 -4.546875 -1.359375q-1.9687653 -0.828125 -2.3281403 -1.34375q-0.109375 -4.90625 -0.109375 -11.484375q0 -6.578125 0 -10.828125l20.29689 0q-0.703125 -4.421875 -0.515625 -6.640625q0.1875 -2.234375 0.3125 -4.640625q0.125 -2.40625 -0.03125 -4.921875q-0.15625 -2.515625 -2.53125 -5.171875q-7.796875 0.4375 -12.203125 0.703125q-4.4062653 0.25 -6.3906403 1.109375q0.796875 -0.046875 0.734375 -1.828125q-0.0625 -1.796875 -0.0625 -3.421875l0 -20.125zm40.92665 24.53125q-6.25 -0.796875 -11.390625 -0.46875q-5.125 0.3125 -13.375 -0.609375q5.0 18.234375 9.078125 33.65625q4.078125 15.421875 6.734375 30.765625q0.484375 3.15625 -0.265625 4.21875q-0.734375 1.0625 -2.609375 1.484375q-1.859375 0.421875 -4.984375 0.171875q-3.109375 -0.25 -8.5 -0.25q-1.078125 6.03125 -1.015625 11.15625q0.0625 5.140625 2.046875 11.078125q13.15625 0.78125 21.140625 -1.6875q8.0 -2.453125 13.453125 -7.234375q5.46875 -4.765625 8.703125 -11.125q3.234375 -6.34375 5.265625 -13.171875q2.046875 -6.828125 3.390625 -13.765625q1.359375 -6.9375 3.0 -13.15625q1.5625 -6.703125 3.15625 -13.65625q1.59375 -6.953125 4.453125 -17.703125q-8.75 -0.609375 -13.265625 -0.359375q-4.5 0.25 -10.578125 0.078125q-2.359375 5.828125 -3.40625 12.28125q-1.046875 6.4375 -1.890625 13.234375q-0.828125 6.796875 -1.703125 12.921875q-0.875 6.109375 0.3125 6.25q1.140625 -0.25 -0.25 -6.09375q-1.375 -5.859375 -2.65625 -12.359375q-1.265625 -6.5 -2.421875 -12.828125q-1.15625 -6.328125 -2.421875 -12.828125z" fill-rule="nonzero"/><path fill="#e06666" d="m333.82013 33.45813q-1.390625 14.234375 -1.328125 25.96875q0.0625 11.734375 0.4375 23.390625q0.390625 11.65625 0.578125 23.234375q0.203125 11.578125 -0.984375 26.734375q4.140625 -1.140625 6.625 -1.015625q2.5 0.109375 5.546875 0.171875q3.0625 0.0625 6.25 -0.015625q3.1875 -0.078125 5.265625 -2.5625q-0.296875 -6.125 -0.421875 -13.4375q-0.125 -7.328125 -0.125 -15.75q0 -8.4375 0.0625 -17.515625q0.0625 -9.09375 0.1875 -17.53125q0.125 -8.4375 0.25 -15.859375q0.140625 -7.4375 0.140625 -15.3125l-22.484375 -0.5zm82.25864 29.5q-6.234375 -0.390625 -9.375 -0.515625q-3.125 -0.125 -5.375 -0.265625q-0.453125 0 -1.4375 0q-0.984375 0 -2.0625 -0.0625q-1.0625 -0.0625 -3.21875 0.09375q-2.15625 0.15625 -2.15625 2.765625q0 1.25 -0.328125 2.765625q-0.328125 1.5 2.46875 3.75q1.34375 -3.703125 -0.359375 -5.3125q-1.6875 -1.625 -3.8125 -2.34375q-2.125 -0.734375 -4.328125 -0.796875q-2.203125 -0.078125 -4.578125 -0.078125q-5.1875 0.140625 -9.6875 2.6875q-4.5 2.53125 -7.6875 6.84375q-3.171875 4.3125 -4.96875 10.09375q-1.78125 5.78125 -1.78125 12.59375q0 5.359375 1.125 11.65625q1.140625 6.296875 3.609375 11.796875q2.484375 5.484375 6.5625 9.5q4.078125 4.0 10.171875 4.0q5.078125 0 10.21875 -2.390625q5.15625 -2.40625 6.140625 -6.40625q-2.125 -0.375 -2.390625 0.53125q-0.25 0.890625 -0.25 2.671875q0 1.5625 0.671875 3.171875q0.671875 1.609375 3.171875 2.296875q1.953125 0 3.296875 -0.1875q1.34375 -0.1875 2.5625 -0.1875q1.921875 0 4.03125 0.1875q2.109375 0.1875 4.28125 0.1875l1.765625 0q3.890625 -0.640625 3.984375 -3.40625q0.109375 -2.78125 0.109375 -4.40625q0.90625 -13.75 0.390625 -27.140625q-0.515625 -13.40625 -0.125 -27.1875l0 -1.3125q0 -0.890625 -0.078125 -1.75q-0.078125 -0.875 -0.5625 -3.84375zm-36.953125 28.640625q0.484375 -2.40625 2.75 -4.296875q2.28125 -1.890625 6.578125 -1.890625q2.3125 0 2.859375 0.15625q0.546875 0.15625 0.78125 0.75q0.25 0.578125 0.296875 2.953125q0.0625 2.359375 0.0625 6.796875q0 3.5625 -0.0625 6.21875q-0.046875 2.640625 -0.546875 4.015625q-0.484375 1.375 -1.390625 2.0q-0.90625 0.609375 -3.28125 0.609375q-4.046875 0 -6.390625 -3.140625q-2.34375 -3.15625 -2.34375 -8.03125q0 -1.5625 0.109375 -3.09375q0.125 -1.546875 0.578125 -3.046875z" fill-rule="nonzero"/></g></svg>